<?xml version="1.0" encoding="UTF-8"?>
<svg version="1.1" xmlns="http://www.w3.org/2000/svg" width="48" height="48">
<path d="M0 0 C15.84 0 31.68 0 48 0 C48 15.84 48 31.68 48 48 C32.16 48 16.32 48 0 48 C0 32.16 0 16.32 0 0 Z " fill="#6D64FE" transform="translate(0,0)"/>
<path d="M0 0 C0.94875 0.350625 1.8975 0.70125 2.875 1.0625 C5.87060172 2.35026777 5.87060172 2.35026777 8 1 C15.22330097 0.53398058 15.22330097 0.53398058 18.5 2.5 C18.995 2.995 19.49 3.49 20 4 C19.25 8.75 19.25 8.75 17 11 C15.08984375 11.16015625 15.08984375 11.16015625 12.9375 11.0625 C11.638125 11.041875 10.33875 11.02125 9 11 C8.67 11.33 8.34 11.66 8 12 C8 12.66 8 13.32 8 14 C9.65 14 11.3 14 13 14 C13.33 14.99 13.66 15.98 14 17 C12.2984375 17.2165625 12.2984375 17.2165625 10.5625 17.4375 C7.19222799 17.61171478 7.19222799 17.61171478 6 19 C5.83333333 22 5.83333333 22 6 25 C7.20774253 26.42724406 7.20774253 26.42724406 10.75 26.25 C14.62270941 26.22223864 16.80579381 25.25473378 20 23 C20.66 23 21.32 23 22 23 C21.4568634 26.80195622 19.84334437 28.50130343 17 31 C13.05201168 32.97399416 8.30380009 32.43472728 4 32 C0.03132992 30.01566496 -0.72726349 28.81820954 -2.125 24.625 C-1.95553658 19.71056078 -0.41284826 18.41284826 3 15 C2.34 14.01 1.68 13.02 1 12 C0.96794798 9.9807227 0.94032686 7.96016781 0.99609375 5.94140625 C1.00035465 3.82373955 0.66950999 2.00852998 0 0 Z " fill="#F5F4FF" transform="translate(14,8)"/>
<path d="M0 0 C1.98 0 3.96 0 6 0 C6 0.99 6 1.98 6 3 C4.35 3 2.7 3 1 3 C0.67 2.01 0.34 1.02 0 0 Z " fill="#867FFF" transform="translate(23,13)"/>
</svg>
